<?xml version="1.0" standalone="no"?>
<!DOCTYPE svg PUBLIC "-//W3C//DTD SVG 20010904//EN"
 "http://www.w3.org/TR/2001/REC-SVG-20010904/DTD/svg10.dtd">
<svg version="1.0" xmlns="http://www.w3.org/2000/svg"
 width="896.000000pt" height="896.000000pt" viewBox="0 0 896.000000 896.000000"
 preserveAspectRatio="xMidYMid meet">
<metadata>
Created by potrace 1.14, written by Peter Selinger 2001-2017
</metadata>
<g transform="translate(0.000000,896.000000) scale(0.100000,-0.100000)"
fill="#000000" stroke="none">
<path d="M2129 8956 c-2 -2 -26 -6 -54 -10 -71 -9 -150 -23 -150 -26 0 -1 -9
-3 -20 -5 -79 -13 -246 -74 -350 -127 -72 -37 -189 -110 -193 -120 -2 -5 -10
-8 -17 -8 -7 0 -15 -3 -17 -7 -1 -5 -25 -26 -53 -47 -77 -60 -235 -225 -280
-292 -22 -32 -43 -61 -46 -64 -24 -21 -158 -284 -174 -342 -2 -5 -3 -9 -5 -10
-1 -2 -3 -11 -5 -20 -2 -9 -8 -33 -15 -52 -6 -20 -9 -40 -6 -45 4 -5 2 -11 -3
-13 -5 -1 -12 -18 -16 -37 -5 -22 -4 -31 3 -27 6 3 14 1 18 -6 4 -7 4 -10 -1
-6 -9 8 -35 -9 -35 -23 0 -4 10 -6 21 -4 12 3 18 1 15 -3 -4 -4 -12 -8 -17 -8
-5 -1 -13 -2 -19 -3 -5 0 -10 -6 -10 -12 0 -5 5 -7 11 -3 6 3 3 -9 -6 -27 -13
-24 -14 -34 -6 -37 9 -3 9 -8 0 -19 -10 -12 -10 -16 2 -24 12 -7 12 -9 -1 -9
-13 0 -13 -1 0 -10 12 -8 12 -10 -4 -16 -17 -6 -16 -8 5 -21 22 -13 22 -13 2
-8 -17 5 -21 2 -18 -12 2 -10 4 -22 4 -26 1 -5 7 -5 14 -2 6 4 5 1 -3 -7 -13
-11 -16 -46 -15 -215 0 -110 3 -199 7 -196 5 2 8 -1 8 -6 0 -6 -5 -11 -11 -11
-8 0 -7 -6 2 -17 8 -9 9 -14 4 -11 -7 4 -10 -29 -10 -97 0 -57 3 -101 7 -98 5
2 8 -1 8 -6 0 -6 -5 -11 -11 -11 -8 0 -7 -6 2 -17 8 -9 9 -14 4 -11 -7 4 -10
-69 -10 -217 0 -123 3 -221 8 -218 4 2 7 -1 7 -6 0 -6 -5 -11 -11 -11 -8 0 -7
-6 2 -17 8 -9 9 -14 4 -11 -7 4 -10 -69 -10 -217 0 -123 3 -221 7 -218 5 2 8
-1 8 -6 0 -6 -3 -11 -8 -11 -4 0 -7 -249 -7 -554 0 -305 3 -552 7 -549 5 2 8
-1 8 -6 0 -6 -5 -11 -11 -11 -8 0 -7 -6 2 -17 8 -9 9 -14 4 -11 -7 4 -10 -55
-10 -177 0 -101 3 -181 7 -179 5 3 8 0 8 -5 0 -6 -5 -11 -11 -11 -8 0 -7 -6 2
-17 8 -9 9 -14 4 -11 -7 4 -10 -29 -10 -97 0 -57 3 -101 7 -98 5 2 8 -1 8 -6
0 -6 -5 -11 -11 -11 -8 0 -7 -6 2 -17 8 -9 9 -14 4 -11 -7 4 -10 -135 -10
-417 0 -233 3 -421 7 -418 5 2 8 -1 8 -6 0 -6 -5 -11 -11 -11 -8 0 -7 -6 2
-17 8 -9 9 -14 4 -11 -7 4 -10 -29 -10 -97 0 -57 3 -101 7 -98 5 2 8 -1 8 -6
0 -6 -5 -11 -11 -11 -8 0 -7 -6 2 -17 8 -9 9 -14 4 -11 -7 4 -10 -69 -10 -217
0 -123 3 -221 8 -218 4 2 7 -1 7 -6 0 -6 -5 -11 -11 -11 -8 0 -7 -6 2 -17 8
-9 9 -14 4 -11 -7 4 -10 -69 -10 -217 0 -123 3 -221 7 -218 5 2 8 -1 8 -6 0
-6 -3 -11 -8 -11 -4 0 -7 -98 -6 -217 2 -263 2 -256 14 -248 5 3 10 1 10 -4 0
-6 -4 -11 -10 -11 -5 0 -10 -13 -10 -30 0 -17 5 -30 13 -30 8 0 7 -4 -3 -10
-13 -9 -13 -10 0 -10 9 0 22 6 30 13 12 10 12 9 2 -4 -6 -9 -9 -19 -5 -23 4
-4 0 -4 -8 -1 -12 4 -15 -1 -15 -24 1 -16 4 -32 8 -36 4 -4 4 -14 1 -23 -5
-11 -3 -13 8 -7 12 8 12 6 0 -8 -7 -9 -9 -17 -4 -17 6 0 10 -8 9 -17 -1 -17
18 -97 31 -133 6 -16 11 -32 16 -53 2 -6 8 -21 14 -32 6 -11 11 -23 11 -28 1
-4 19 -47 42 -95 153 -324 441 -606 768 -754 77 -35 113 -50 127 -53 6 -2 39
-12 74 -24 63 -21 165 -44 257 -58 65 -10 4753 -10 4824 0 30 4 73 12 94 17
22 5 43 7 47 4 4 -2 10 0 14 6 3 5 15 10 25 10 31 0 196 58 279 97 42 20 79
35 84 35 4 -1 7 2 7 8 0 5 5 10 11 10 13 0 166 99 222 143 70 56 222 210 272
275 63 84 115 162 108 162 -3 0 1 8 9 18 17 19 70 120 66 125 -2 2 4 14 13 27
33 52 98 263 114 370 3 19 10 60 15 90 10 63 8 6126 -3 6178 -4 17 -9 42 -11
55 -12 63 -38 161 -61 232 -30 92 -142 325 -156 325 -5 0 -9 6 -9 13 0 38
-215 286 -336 388 -53 45 -175 125 -264 172 -79 43 -251 114 -292 122 -10 2
-45 11 -79 19 -67 18 -130 29 -171 30 -16 1 -28 4 -28 8 0 7 -4723 11 -4731 4z
m-1399 -1416 c0 -5 -7 -7 -15 -4 -8 4 -15 8 -15 10 0 2 7 4 15 4 8 0 15 -4 15
-10z m20 -36 c0 -8 -19 -13 -24 -6 -3 5 1 9 9 9 8 0 15 -2 15 -3z m-10 -60 c0
-8 -19 -13 -24 -6 -3 5 1 9 9 9 8 0 15 -2 15 -3z m-6 -42 c3 -5 -1 -9 -9 -9
-8 0 -15 4 -15 9 0 4 4 8 9 8 6 0 12 -4 15 -8z m-28 -37 c1 -8 -2 -15 -6 -15
-5 0 -8 9 -7 20 1 21 10 18 13 -5z m29 -25 c-3 -5 -12 -10 -18 -10 -7 0 -6 4
3 10 19 12 23 12 15 0z m8 -35 c-3 -9 -8 -14 -10 -11 -3 3 -2 9 2 15 9 16 15
13 8 -4z m-33 -25 c0 -5 -4 -10 -10 -10 -5 0 -10 5 -10 10 0 6 5 10 10 10 6 0
10 -4 10 -10z m0 -80 c0 -5 -4 -10 -10 -10 -5 0 -10 5 -10 10 0 6 5 10 10 10
6 0 10 -4 10 -10z m25 -20 c-3 -5 -12 -10 -18 -10 -7 0 -6 4 3 10 19 12 23 12
15 0z m8 -35 c-3 -9 -8 -14 -10 -11 -3 3 -2 9 2 15 9 16 15 13 8 -4z m-33 -25
c0 -5 -4 -10 -10 -10 -5 0 -10 5 -10 10 0 6 5 10 10 10 6 0 10 -4 10 -10z m19
-33 c8 -10 7 -14 -2 -14 -8 0 -14 6 -14 14 0 7 1 13 2 13 2 0 8 -6 14 -13z
m-26 -42 c-7 -21 -12 -19 -10 4 0 11 5 18 9 15 4 -3 5 -11 1 -19z m23 -39 c-1
-24 -4 -42 -7 -40 -4 2 -5 18 -4 36 4 44 4 48 8 48 2 0 3 -20 3 -44z m23 -71
c3 -3 -7 -4 -23 -1 -16 3 -31 8 -35 11 -3 3 7 4 23 1 16 -3 31 -8 35 -11z
m-44 -15 c3 -5 1 -10 -4 -10 -6 0 -11 5 -11 10 0 6 2 10 4 10 3 0 8 -4 11 -10z
m30 -40 c-3 -5 -12 -10 -18 -10 -7 0 -6 4 3 10 19 12 23 12 15 0z m-25 -34 c0
-3 -4 -8 -10 -11 -5 -3 -10 -1 -10 4 0 6 5 11 10 11 6 0 10 -2 10 -4z m-2 -36
c-7 -10 -14 -17 -17 -15 -4 4 18 35 25 35 2 0 -1 -9 -8 -20z m17 -30 c3 -5 1
-10 -4 -10 -6 0 -11 5 -11 10 0 6 2 10 4 10 3 0 8 -4 11 -10z m0 -40 c3 -5 1
-10 -4 -10 -6 0 -11 5 -11 10 0 6 2 10 4 10 3 0 8 -4 11 -10z m-10 -40 c3 -6
-1 -7 -9 -4 -18 7 -21 14 -7 14 6 0 13 -4 16 -10z m-10 -20 c3 -5 1 -10 -4
-10 -6 0 -11 5 -11 10 0 6 2 10 4 10 3 0 8 -4 11 -10z m7 -58 c-7 -2 -9 -9 -5
-15 3 -7 2 -8 -2 -4 -16 14 -14 36 3 29 10 -4 12 -7 4 -10z m3 -42 c3 -6 -1
-7 -9 -4 -18 7 -21 14 -7 14 6 0 13 -4 16 -10z m-7 -49 c0 -17 -2 -33 -6 -35
-4 -2 -7 13 -7 34 0 45 12 45 13 1z m-1 -81 c-1 -11 -5 -20 -9 -20 -10 0 -10
4 -2 24 8 22 13 20 11 -4z m37 12 c3 -5 -1 -9 -9 -9 -8 0 -12 4 -9 9 3 4 7 8
9 8 2 0 6 -4 9 -8z m-9 -62 c-3 -5 -12 -10 -18 -10 -7 0 -6 4 3 10 19 12 23
12 15 0z m-25 -34 c0 -3 -4 -8 -10 -11 -5 -3 -10 -1 -10 4 0 6 5 11 10 11 6 0
10 -2 10 -4z m-2 -36 c-7 -10 -14 -17 -17 -15 -4 4 18 35 25 35 2 0 -1 -9 -8
-20z m17 -30 c3 -5 1 -10 -4 -10 -6 0 -11 5 -11 10 0 6 2 10 4 10 3 0 8 -4 11
-10z m0 -40 c3 -5 1 -10 -4 -10 -6 0 -11 5 -11 10 0 6 2 10 4 10 3 0 8 -4 11
-10z m-10 -40 c3 -6 -1 -7 -9 -4 -18 7 -21 14 -7 14 6 0 13 -4 16 -10z m-10
-20 c3 -5 1 -10 -4 -10 -6 0 -11 5 -11 10 0 6 2 10 4 10 3 0 8 -4 11 -10z m7
-58 c-7 -2 -9 -9 -5 -15 3 -7 2 -8 -2 -4 -16 14 -14 36 3 29 10 -4 12 -7 4
-10z m3 -42 c3 -6 -1 -7 -9 -4 -18 7 -21 14 -7 14 6 0 13 -4 16 -10z m-7 -49
c0 -17 -2 -33 -6 -35 -4 -2 -7 13 -7 34 0 45 12 45 13 1z m-1 -81 c-1 -11 -5
-20 -9 -20 -10 0 -10 4 -2 24 8 22 13 20 11 -4z m37 12 c3 -5 -1 -9 -9 -9 -8
0 -12 4 -9 9 3 4 7 8 9 8 2 0 6 -4 9 -8z m-9 -62 c-3 -5 -12 -10 -18 -10 -7 0
-6 4 3 10 19 12 23 12 15 0z m-25 -34 c0 -3 -4 -8 -10 -11 -5 -3 -10 -1 -10 4
0 6 5 11 10 11 6 0 10 -2 10 -4z m-2 -36 c-7 -10 -14 -17 -17 -15 -4 4 18 35
25 35 2 0 -1 -9 -8 -20z m17 -30 c3 -5 1 -10 -4 -10 -6 0 -11 5 -11 10 0 6 2
10 4 10 3 0 8 -4 11 -10z m0 -40 c3 -5 1 -10 -4 -10 -6 0 -11 5 -11 10 0 6 2
10 4 10 3 0 8 -4 11 -10z m-20 -20 c3 -5 1 -10 -4 -10 -6 0 -11 5 -11 10 0 6
2 10 4 10 3 0 8 -4 11 -10z m30 -20 c-3 -5 -12 -10 -18 -10 -7 0 -6 4 3 10 19
12 23 12 15 0z m8 -35 c-3 -9 -8 -14 -10 -11 -3 3 -2 9 2 15 9 16 15 13 8 -4z
m-33 -25 c0 -5 -4 -10 -10 -10 -5 0 -10 5 -10 10 0 6 5 10 10 10 6 0 10 -4 10
-10z m0 -80 c0 -5 -4 -10 -10 -10 -5 0 -10 5 -10 10 0 6 5 10 10 10 6 0 10 -4
10 -10z m25 -20 c-3 -5 -12 -10 -18 -10 -7 0 -6 4 3 10 19 12 23 12 15 0z m8
-35 c-3 -9 -8 -14 -10 -11 -3 3 -2 9 2 15 9 16 15 13 8 -4z m-33 -25 c0 -5 -4
-10 -10 -10 -5 0 -10 5 -10 10 0 6 5 10 10 10 6 0 10 -4 10 -10z m19 -33 c8
-10 7 -14 -2 -14 -8 0 -14 6 -14 14 0 7 1 13 2 13 2 0 8 -6 14 -13z m-23 -42
c1 -8 -2 -15 -6 -15 -5 0 -8 9 -7 20 1 21 10 18 13 -5z m29 -25 c-3 -5 -12
-10 -18 -10 -7 0 -6 4 3 10 19 12 23 12 15 0z m8 -35 c-3 -9 -8 -14 -10 -11
-3 3 -2 9 2 15 9 16 15 13 8 -4z m-33 -25 c0 -5 -4 -10 -10 -10 -5 0 -10 5
-10 10 0 6 5 10 10 10 6 0 10 -4 10 -10z m0 -80 c0 -5 -4 -10 -10 -10 -5 0
-10 5 -10 10 0 6 5 10 10 10 6 0 10 -4 10 -10z m25 -20 c-3 -5 -12 -10 -18
-10 -7 0 -6 4 3 10 19 12 23 12 15 0z m8 -35 c-3 -9 -8 -14 -10 -11 -3 3 -2 9
2 15 9 16 15 13 8 -4z m-33 -25 c0 -5 -4 -10 -10 -10 -5 0 -10 5 -10 10 0 6 5
10 10 10 6 0 10 -4 10 -10z m19 -33 c8 -10 7 -14 -2 -14 -8 0 -14 6 -14 14 0
7 1 13 2 13 2 0 8 -6 14 -13z m-24 -26 c3 -5 2 -12 -3 -15 -5 -3 -9 1 -9 9 0
17 3 19 12 6z m10 -41 c3 -6 -1 -7 -9 -4 -18 7 -21 14 -7 14 6 0 13 -4 16 -10z
m-10 -20 c3 -5 1 -10 -4 -10 -6 0 -11 5 -11 10 0 6 2 10 4 10 3 0 8 -4 11 -10z
m7 -58 c-7 -2 -9 -9 -5 -15 3 -7 2 -8 -2 -4 -16 14 -14 36 3 29 10 -4 12 -7 4
-10z m3 -42 c3 -6 -1 -7 -9 -4 -18 7 -21 14 -7 14 6 0 13 -4 16 -10z m-7 -49
c0 -17 -2 -33 -6 -35 -4 -2 -7 13 -7 34 0 45 12 45 13 1z m-1 -81 c-1 -11 -5
-20 -9 -20 -10 0 -10 4 -2 24 8 22 13 20 11 -4z m37 12 c3 -5 -1 -9 -9 -9 -8
0 -12 4 -9 9 3 4 7 8 9 8 2 0 6 -4 9 -8z m-9 -62 c-3 -5 -12 -10 -18 -10 -7 0
-6 4 3 10 19 12 23 12 15 0z m-25 -34 c0 -3 -4 -8 -10 -11 -5 -3 -10 -1 -10 4
0 6 5 11 10 11 6 0 10 -2 10 -4z m-2 -36 c-7 -10 -14 -17 -17 -15 -4 4 18 35
25 35 2 0 -1 -9 -8 -20z m17 -30 c3 -5 1 -10 -4 -10 -6 0 -11 5 -11 10 0 6 2
10 4 10 3 0 8 -4 11 -10z m0 -40 c3 -5 1 -10 -4 -10 -6 0 -11 5 -11 10 0 6 2
10 4 10 3 0 8 -4 11 -10z m-10 -40 c3 -6 -1 -7 -9 -4 -18 7 -21 14 -7 14 6 0
13 -4 16 -10z m-10 -20 c3 -5 1 -10 -4 -10 -6 0 -11 5 -11 10 0 6 2 10 4 10 3
0 8 -4 11 -10z m7 -58 c-7 -2 -9 -9 -5 -15 3 -7 2 -8 -2 -4 -16 14 -14 36 3
29 10 -4 12 -7 4 -10z m3 -42 c3 -6 -1 -7 -9 -4 -18 7 -21 14 -7 14 6 0 13 -4
16 -10z m10 -70 c3 -5 1 -10 -4 -10 -6 0 -11 5 -11 10 0 6 2 10 4 10 3 0 8 -4
11 -10z m2 -37 c0 -10 -4 -10 -16 -1 -9 7 -18 13 -20 15 -2 1 5 1 16 0 11 0
20 -7 20 -14z m-24 -28 c-7 -21 -12 -19 -10 4 0 11 5 18 9 15 4 -3 5 -11 1
-19z m23 -79 c-1 -24 -4 -42 -7 -40 -4 2 -5 18 -4 36 4 44 4 48 8 48 2 0 3
-20 3 -44z m23 -71 c3 -3 -7 -4 -23 -1 -16 3 -31 8 -35 11 -3 3 7 4 23 1 16
-3 31 -8 35 -11z m-44 -15 c3 -5 1 -10 -4 -10 -6 0 -11 5 -11 10 0 6 2 10 4
10 3 0 8 -4 11 -10z m30 -40 c-3 -5 -12 -10 -18 -10 -7 0 -6 4 3 10 19 12 23
12 15 0z m-25 -34 c0 -3 -4 -8 -10 -11 -5 -3 -10 -1 -10 4 0 6 5 11 10 11 6 0
10 -2 10 -4z m-2 -36 c-7 -10 -14 -17 -17 -15 -4 4 18 35 25 35 2 0 -1 -9 -8
-20z m17 -30 c3 -5 1 -10 -4 -10 -6 0 -11 5 -11 10 0 6 2 10 4 10 3 0 8 -4 11
-10z m0 -40 c3 -5 1 -10 -4 -10 -6 0 -11 5 -11 10 0 6 2 10 4 10 3 0 8 -4 11
-10z m-10 -40 c3 -6 -1 -7 -9 -4 -18 7 -21 14 -7 14 6 0 13 -4 16 -10z m-10
-20 c3 -5 1 -10 -4 -10 -6 0 -11 5 -11 10 0 6 2 10 4 10 3 0 8 -4 11 -10z m7
-58 c-7 -2 -9 -9 -5 -15 3 -7 2 -8 -2 -4 -16 14 -14 36 3 29 10 -4 12 -7 4
-10z m3 -42 c3 -6 -1 -7 -9 -4 -18 7 -21 14 -7 14 6 0 13 -4 16 -10z m-10 -20
c3 -5 1 -10 -4 -10 -6 0 -11 5 -11 10 0 6 2 10 4 10 3 0 8 -4 11 -10z m30 -20
c-3 -5 -12 -10 -18 -10 -7 0 -6 4 3 10 19 12 23 12 15 0z m8 -35 c-3 -9 -8
-14 -10 -11 -3 3 -2 9 2 15 9 16 15 13 8 -4z m-33 -25 c0 -5 -4 -10 -10 -10
-5 0 -10 5 -10 10 0 6 5 10 10 10 6 0 10 -4 10 -10z m0 -80 c0 -5 -4 -10 -10
-10 -5 0 -10 5 -10 10 0 6 5 10 10 10 6 0 10 -4 10 -10z m25 -20 c-3 -5 -12
-10 -18 -10 -7 0 -6 4 3 10 19 12 23 12 15 0z m8 -35 c-3 -9 -8 -14 -10 -11
-3 3 -2 9 2 15 9 16 15 13 8 -4z m-33 -25 c0 -5 -4 -10 -10 -10 -5 0 -10 5
-10 10 0 6 5 10 10 10 6 0 10 -4 10 -10z m19 -33 c8 -10 7 -14 -2 -14 -8 0
-14 6 -14 14 0 7 1 13 2 13 2 0 8 -6 14 -13z m-23 -42 c1 -8 -2 -15 -6 -15 -5
0 -8 9 -7 20 1 21 10 18 13 -5z m29 -25 c-3 -5 -12 -10 -18 -10 -7 0 -6 4 3
10 19 12 23 12 15 0z m8 -35 c-3 -9 -8 -14 -10 -11 -3 3 -2 9 2 15 9 16 15 13
8 -4z m-33 -25 c0 -5 -4 -10 -10 -10 -5 0 -10 5 -10 10 0 6 5 10 10 10 6 0 10
-4 10 -10z m0 -80 c0 -5 -4 -10 -10 -10 -5 0 -10 5 -10 10 0 6 5 10 10 10 6 0
10 -4 10 -10z m25 -20 c-3 -5 -12 -10 -18 -10 -7 0 -6 4 3 10 19 12 23 12 15
0z m8 -35 c-3 -9 -8 -14 -10 -11 -3 3 -2 9 2 15 9 16 15 13 8 -4z m-33 -25 c0
-5 -4 -10 -10 -10 -5 0 -10 5 -10 10 0 6 5 10 10 10 6 0 10 -4 10 -10z m19
-33 c8 -10 7 -14 -2 -14 -8 0 -14 6 -14 14 0 7 1 13 2 13 2 0 8 -6 14 -13z
m-26 -42 c-7 -21 -12 -19 -10 4 0 11 5 18 9 15 4 -3 5 -11 1 -19z m23 -39 c-1
-24 -4 -42 -7 -40 -4 2 -5 18 -4 36 4 44 4 48 8 48 2 0 3 -20 3 -44z m23 -71
c3 -3 -7 -4 -23 -1 -16 3 -31 8 -35 11 -3 3 7 4 23 1 16 -3 31 -8 35 -11z
m-44 -15 c3 -5 1 -10 -4 -10 -6 0 -11 5 -11 10 0 6 2 10 4 10 3 0 8 -4 11 -10z
m30 -40 c-3 -5 -12 -10 -18 -10 -7 0 -6 4 3 10 19 12 23 12 15 0z m-25 -34 c0
-3 -4 -8 -10 -11 -5 -3 -10 -1 -10 4 0 6 5 11 10 11 6 0 10 -2 10 -4z m-2 -36
c-7 -10 -14 -17 -17 -15 -4 4 18 35 25 35 2 0 -1 -9 -8 -20z m17 -30 c3 -5 1
-10 -4 -10 -6 0 -11 5 -11 10 0 6 2 10 4 10 3 0 8 -4 11 -10z m0 -40 c3 -5 1
-10 -4 -10 -6 0 -11 5 -11 10 0 6 2 10 4 10 3 0 8 -4 11 -10z m-10 -40 c3 -6
-1 -7 -9 -4 -18 7 -21 14 -7 14 6 0 13 -4 16 -10z m-10 -20 c3 -5 1 -10 -4
-10 -6 0 -11 5 -11 10 0 6 2 10 4 10 3 0 8 -4 11 -10z m7 -58 c-7 -2 -9 -9 -5
-15 3 -7 2 -8 -2 -4 -16 14 -14 36 3 29 10 -4 12 -7 4 -10z m3 -42 c3 -6 -1
-7 -9 -4 -18 7 -21 14 -7 14 6 0 13 -4 16 -10z m-7 -49 c0 -17 -2 -33 -6 -35
-4 -2 -7 13 -7 34 0 45 12 45 13 1z m-1 -81 c-1 -11 -5 -20 -9 -20 -10 0 -10
4 -2 24 8 22 13 20 11 -4z m37 12 c3 -5 -1 -9 -9 -9 -8 0 -12 4 -9 9 3 4 7 8
9 8 2 0 6 -4 9 -8z m-9 -62 c-3 -5 -12 -10 -18 -10 -7 0 -6 4 3 10 19 12 23
12 15 0z m-25 -34 c0 -3 -4 -8 -10 -11 -5 -3 -10 -1 -10 4 0 6 5 11 10 11 6 0
10 -2 10 -4z m-2 -36 c-7 -10 -14 -17 -17 -15 -4 4 18 35 25 35 2 0 -1 -9 -8
-20z m17 -30 c3 -5 1 -10 -4 -10 -6 0 -11 5 -11 10 0 6 2 10 4 10 3 0 8 -4 11
-10z m0 -40 c3 -5 1 -10 -4 -10 -6 0 -11 5 -11 10 0 6 2 10 4 10 3 0 8 -4 11
-10z m-10 -40 c3 -6 -1 -7 -9 -4 -18 7 -21 14 -7 14 6 0 13 -4 16 -10z m-10
-20 c3 -5 1 -10 -4 -10 -6 0 -11 5 -11 10 0 6 2 10 4 10 3 0 8 -4 11 -10z m7
-58 c-7 -2 -9 -9 -5 -15 3 -7 2 -8 -2 -4 -16 14 -14 36 3 29 10 -4 12 -7 4
-10z m3 -42 c3 -6 -1 -7 -9 -4 -18 7 -21 14 -7 14 6 0 13 -4 16 -10z m-7 -49
c0 -17 -2 -33 -6 -35 -4 -2 -7 13 -7 34 0 45 12 45 13 1z m-1 -81 c-1 -11 -5
-20 -9 -20 -10 0 -10 4 -2 24 8 22 13 20 11 -4z m37 12 c3 -5 -1 -9 -9 -9 -8
0 -12 4 -9 9 3 4 7 8 9 8 2 0 6 -4 9 -8z m-9 -62 c-3 -5 -12 -10 -18 -10 -7 0
-6 4 3 10 19 12 23 12 15 0z m-25 -34 c0 -3 -4 -8 -10 -11 -5 -3 -10 -1 -10 4
0 6 5 11 10 11 6 0 10 -2 10 -4z m-2 -36 c-7 -10 -14 -17 -17 -15 -4 4 18 35
25 35 2 0 -1 -9 -8 -20z m17 -30 c3 -5 1 -10 -4 -10 -6 0 -11 5 -11 10 0 6 2
10 4 10 3 0 8 -4 11 -10z m0 -40 c3 -5 1 -10 -4 -10 -6 0 -11 5 -11 10 0 6 2
10 4 10 3 0 8 -4 11 -10z m-20 -20 c3 -5 1 -10 -4 -10 -6 0 -11 5 -11 10 0 6
2 10 4 10 3 0 8 -4 11 -10z m30 -20 c-3 -5 -12 -10 -18 -10 -7 0 -6 4 3 10 19
12 23 12 15 0z m8 -35 c-3 -9 -8 -14 -10 -11 -3 3 -2 9 2 15 9 16 15 13 8 -4z
m-33 -25 c0 -5 -4 -10 -10 -10 -5 0 -10 5 -10 10 0 6 5 10 10 10 6 0 10 -4 10
-10z m0 -80 c0 -5 -4 -10 -10 -10 -5 0 -10 5 -10 10 0 6 5 10 10 10 6 0 10 -4
10 -10z m25 -20 c-3 -5 -12 -10 -18 -10 -7 0 -6 4 3 10 19 12 23 12 15 0z m8
-35 c-3 -9 -8 -14 -10 -11 -3 3 -2 9 2 15 9 16 15 13 8 -4z m-33 -25 c0 -5 -4
-10 -10 -10 -5 0 -10 5 -10 10 0 6 5 10 10 10 6 0 10 -4 10 -10z m19 -33 c8
-10 7 -14 -2 -14 -8 0 -14 6 -14 14 0 7 1 13 2 13 2 0 8 -6 14 -13z m-23 -42
c1 -8 -2 -15 -6 -15 -5 0 -8 9 -7 20 1 21 10 18 13 -5z m38 -23 c2 -4 -5 -9
-17 -9 -17 -2 -19 0 -7 7 18 12 18 12 24 2z m-38 -37 c-1 -8 -5 -17 -8 -21 -5
-4 -4 16 1 34 3 9 9 -1 7 -13z m18 -41 c3 -8 2 -12 -4 -9 -6 3 -10 10 -10 16
0 14 7 11 14 -7z m7 -58 c14 8 11 -2 -4 -14 -10 -8 -13 -6 -14 11 0 12 1 16 4
9 3 -6 9 -10 14 -6z m32 -81 c-3 -9 -8 -14 -10 -11 -3 3 -2 9 2 15 9 16 15 13
8 -4z m-32 -42 c13 -16 12 -17 -3 -4 -10 7 -18 15 -18 17 0 8 8 3 21 -13z"/>
</g>
</svg>
